P2
# Images/image0004.pgm
17 17
1
0	0	0	0	0	0	0	0	0	0	0	0	0	0	0	0	0
0	0	0	1	1	1	1	1	1	1	1	1	1	1	0	0	0
0	0	1	1	1	1	1	1	1	1	1	1	1	1	1	0	0
0	1	1	0	0	0	0	0	0	0	0	0	0	0	1	1	0
0	1	1	0	0	1	1	0	0	0	1	1	0	0	1	1	0
0	1	1	0	1	1	1	0	0	0	1	1	1	0	1	1	0
0	1	1	0	1	1	0	0	0	0	0	1	1	0	1	1	0
0	1	1	0	0	0	0	0	0	0	0	0	0	0	1	1	0
0	1	1	0	0	0	0	0	0	0	0	0	0	0	1	1	0
0	1	1	0	0	0	0	0	0	0	0	0	0	0	1	1	0
0	1	1	0	1	1	0	0	0	0	0	1	1	0	1	1	0
0	1	1	0	1	1	1	0	0	0	1	1	1	0	1	1	0
0	1	1	0	0	1	1	0	0	0	1	1	0	0	1	1	0
0	1	1	0	0	0	0	0	0	0	0	0	0	0	1	1	0
0	0	1	1	1	1	1	1	1	1	1	1	1	1	1	0	0
0	0	0	1	1	1	1	1	1	1	1	1	1	1	0	0	0
0	0	0	0	0	0	0	0	0	0	0	0	0	0	0	0	0
